<svg width="15" height="15" viewBox="0 0 15 15" fill="#000" xmlns="http://www.w3.org/2000/svg">
<path d="M0 0.5C0 0.223858 0.223858 0 0.5 0H2C2.22943 0 2.42943 0.156149 2.48507 0.378732L2.89039 2H14.5C14.6487 2 14.7898 2.06622 14.8848 2.18068C14.9797 2.29514 15.0188 2.44595 14.9914 2.59214L13.4914 10.5921C13.4471 10.8286 13.2406 11 13 11H12H5H4C3.75939 11 3.55291 10.8286 3.50856 10.5921L2.01131 2.6068L1.60961 1H0.5C0.223858 1 0 0.776142 0 0.5ZM3.10246 3L4.41496 10H12.585L13.8975 3H3.10246ZM5 11C3.89543 11 3 11.8954 3 13C3 14.1046 3.89543 15 5 15C6.10457 15 7 14.1046 7 13C7 11.8954 6.10457 11 5 11ZM12 11C10.8954 11 10 11.8954 10 13C10 14.1046 10.8954 15 12 15C13.1046 15 14 14.1046 14 13C14 11.8954 13.1046 11 12 11ZM5 12C5.55228 12 6 12.4477 6 13C6 13.5523 5.55228 14 5 14C4.44772 14 4 13.5523 4 13C4 12.4477 4.44772 12 5 12ZM12 12C12.5523 12 13 12.4477 13 13C13 13.5523 12.5523 14 12 14C11.4477 14 11 13.5523 11 13C11 12.4477 11.4477 12 12 12Z"/>
</svg>
